<mxfile host="app.diagrams.net" agent="Mozilla/5.0 (Windows NT 10.0; Win64; x64) AppleWebKit/537.36 (KHTML, like Gecko) Chrome/103.0.0.0 Safari/537.36" version="24.7.7">
  <diagram name="第 1 页" id="5hjtM-KKAS6m_pNxVX6e">
    <mxGraphModel dx="1434" dy="764" grid="1" gridSize="10" guides="1" tooltips="1" connect="1" arrows="1" fold="1" page="1" pageScale="1" pageWidth="827" pageHeight="1169" math="0" shadow="0">
      <root>
        <mxCell id="0" />
        <mxCell id="1" parent="0" />
        <mxCell id="97-3pu6afCx0JbpD4qz9-20" value="hdfs namenode搬迁流程" style="swimlane;startSize=20;horizontal=1;containerType=tree;" vertex="1" parent="1">
          <mxGeometry x="160" y="60" width="400" height="880" as="geometry" />
        </mxCell>
        <mxCell id="97-3pu6afCx0JbpD4qz9-21" value="" style="edgeStyle=elbowEdgeStyle;elbow=vertical;sourcePerimeterSpacing=0;targetPerimeterSpacing=0;startArrow=none;endArrow=none;rounded=0;curved=0;" edge="1" parent="97-3pu6afCx0JbpD4qz9-20" source="97-3pu6afCx0JbpD4qz9-22" target="97-3pu6afCx0JbpD4qz9-23">
          <mxGeometry relative="1" as="geometry" />
        </mxCell>
        <mxCell id="97-3pu6afCx0JbpD4qz9-22" value="20240903（周三）&lt;div&gt;停nn备服务&lt;/div&gt;" style="whiteSpace=wrap;html=1;treeFolding=1;treeMoving=1;newEdgeStyle={&quot;edgeStyle&quot;:&quot;elbowEdgeStyle&quot;,&quot;startArrow&quot;:&quot;none&quot;,&quot;endArrow&quot;:&quot;none&quot;};" vertex="1" parent="97-3pu6afCx0JbpD4qz9-20">
          <mxGeometry x="140" y="60" width="120" height="40" as="geometry" />
        </mxCell>
        <mxCell id="97-3pu6afCx0JbpD4qz9-23" value="提搬迁单（预计2小时）" style="whiteSpace=wrap;html=1;treeFolding=1;treeMoving=1;newEdgeStyle={&quot;edgeStyle&quot;:&quot;elbowEdgeStyle&quot;,&quot;startArrow&quot;:&quot;none&quot;,&quot;endArrow&quot;:&quot;none&quot;};" vertex="1" parent="97-3pu6afCx0JbpD4qz9-20">
          <mxGeometry x="140" y="140" width="120" height="40" as="geometry" />
        </mxCell>
      </root>
    </mxGraphModel>
  </diagram>
</mxfile>
